<svg xmlns="http://www.w3.org/2000/svg" version="1.1" xmlns:xlink="http://www.w3.org/1999/xlink" xmlns:svgjs="http://svgjs.dev/svgjs" width="1000" height="686" viewBox="0 0 1000 686"><g transform="matrix(1,0,0,1,-0.023748731791556565,0.27773279352226155)"><svg xmlns="http://www.w3.org/2000/svg" version="1.1" xmlns:xlink="http://www.w3.org/1999/xlink" xmlns:svgjs="http://svgjs.com/svgjs" viewBox="0 0 360 247" data-background-color="#ffffff" preserveAspectRatio="xMidYMid meet" height="686" width="1000"><defs></defs><g id="tight-bounds" transform="matrix(1,0,0,1,0.008549543444956953,-0.09999999999999432)"><svg viewBox="0 0 359.9829009131101 247.2" height="247.2" width="359.9829009131101"><g><svg viewBox="0 0 359.9829009131101 247.2" height="247.2" width="359.9829009131101"><g><svg viewBox="0 0 395.52 271.603300467873" height="247.2" width="359.9829009131101"><g transform="matrix(1,0,0,1,0,164.62594760724983)"><svg viewBox="0 0 395.52 106.97735286062316" height="106.97735286062316" width="395.52"><g><svg viewBox="0 0 395.52 106.97735286062316" height="106.97735286062316" width="395.52"><g><svg viewBox="0 0 395.52 71.09255474452554" height="71.09255474452554" width="395.52"><g transform="matrix(1,0,0,1,0,0)"><svg width="395.52" viewBox="4.91 -37.99 214.04 38.480000000000004" height="71.09255474452554" data-palette-color="#4385b7"><path d="M24.8-3.71L24.8 0 4.91 0 4.91-35.69 24.8-35.69 24.8-32.01 9.06-32.01 9.06-20.51 23.85-20.51 23.85-16.85 9.06-16.85 9.06-3.71 24.8-3.71ZM42.8 0.49L42.8 0.49Q36.98 0.49 33.8-3.09 30.61-6.67 30.61-13.21L30.61-13.21Q30.61-19.92 33.85-23.58 37.08-27.25 43.06-27.25L43.06-27.25Q44.99-27.25 46.92-26.83 48.85-26.42 49.95-25.85L49.95-25.85 48.7-22.41Q47.36-22.95 45.77-23.3 44.19-23.66 42.97-23.66L42.97-23.66Q34.81-23.66 34.81-13.26L34.81-13.26Q34.81-8.33 36.8-5.69 38.79-3.05 42.7-3.05L42.7-3.05Q46.04-3.05 49.56-4.49L49.56-4.49 49.56-0.9Q46.87 0.49 42.8 0.49ZM79-13.4L79-13.4Q79-6.86 75.7-3.19 72.41 0.49 66.6 0.49L66.6 0.49Q63.01 0.49 60.22-1.2 57.44-2.88 55.93-6.03 54.41-9.18 54.41-13.4L54.41-13.4Q54.41-19.95 57.69-23.6 60.96-27.25 66.77-27.25L66.77-27.25Q72.38-27.25 75.69-23.51 79-19.78 79-13.4ZM58.61-13.4L58.61-13.4Q58.61-8.28 60.66-5.59 62.71-2.91 66.69-2.91L66.69-2.91Q70.67-2.91 72.74-5.58 74.8-8.25 74.8-13.4L74.8-13.4Q74.8-18.51 72.74-21.15 70.67-23.8 66.65-23.8L66.65-23.8Q62.67-23.8 60.64-21.19 58.61-18.58 58.61-13.4ZM86.71 0L86.71-35.69 96.79-35.69Q103.9-35.69 107.07-33.57 110.25-31.45 110.25-26.86L110.25-26.86Q110.25-23.68 108.48-21.62 106.71-19.56 103.31-18.95L103.31-18.95 103.31-18.7Q111.44-17.31 111.44-10.16L111.44-10.16Q111.44-5.37 108.21-2.69 104.97 0 99.16 0L99.16 0 86.71 0ZM90.86-32.1L90.86-20.41 97.7-20.41Q102.09-20.41 104.02-21.79 105.95-23.17 105.95-26.44L105.95-26.44Q105.95-29.44 103.8-30.77 101.65-32.1 96.97-32.1L96.97-32.1 90.86-32.1ZM97.97-16.89L90.86-16.89 90.86-3.54 98.31-3.54Q102.63-3.54 104.81-5.21 107-6.88 107-10.45L107-10.45Q107-13.77 104.77-15.33 102.53-16.89 97.97-16.89L97.97-16.89ZM141.59-13.4L141.59-13.4Q141.59-6.86 138.3-3.19 135 0.49 129.19 0.49L129.19 0.49Q125.6 0.49 122.82-1.2 120.03-2.88 118.52-6.03 117.01-9.18 117.01-13.4L117.01-13.4Q117.01-19.95 120.28-23.6 123.55-27.25 129.36-27.25L129.36-27.25Q134.98-27.25 138.28-23.51 141.59-19.78 141.59-13.4ZM121.21-13.4L121.21-13.4Q121.21-8.28 123.26-5.59 125.31-2.91 129.29-2.91L129.29-2.91Q133.27-2.91 135.33-5.58 137.39-8.25 137.39-13.4L137.39-13.4Q137.39-18.51 135.33-21.15 133.27-23.8 129.24-23.8L129.24-23.8Q125.26-23.8 123.23-21.19 121.21-18.58 121.21-13.4ZM168.15 0L165.15 0 164.34-3.81 164.15-3.81Q162.15-1.29 160.16-0.4 158.17 0.49 155.19 0.49L155.19 0.49Q151.21 0.49 148.95-1.56 146.69-3.61 146.69-7.4L146.69-7.4Q146.69-15.5 159.66-15.89L159.66-15.89 164.2-16.04 164.2-17.7Q164.2-20.85 162.84-22.35 161.49-23.85 158.51-23.85L158.51-23.85Q155.16-23.85 150.94-21.8L150.94-21.8 149.69-24.9Q151.67-25.98 154.03-26.59 156.38-27.2 158.75-27.2L158.75-27.2Q163.54-27.2 165.84-25.07 168.15-22.95 168.15-18.26L168.15-18.26 168.15 0ZM155.99-2.86L155.99-2.86Q159.78-2.86 161.94-4.93 164.1-7.01 164.1-10.74L164.1-10.74 164.1-13.16 160.05-12.99Q155.21-12.82 153.08-11.49 150.94-10.16 150.94-7.35L150.94-7.35Q150.94-5.15 152.27-4 153.6-2.86 155.99-2.86ZM188.71-27.25L188.71-27.25Q190.49-27.25 191.9-26.95L191.9-26.95 191.34-23.19Q189.68-23.56 188.41-23.56L188.41-23.56Q185.17-23.56 182.86-20.92 180.55-18.29 180.55-14.36L180.55-14.36 180.55 0 176.5 0 176.5-26.76 179.84-26.76 180.31-21.8 180.5-21.8Q181.99-24.41 184.09-25.83 186.19-27.25 188.71-27.25ZM215.66 0L215.12-3.59 214.9-3.59Q212.09 0.49 206.5 0.49L206.5 0.49Q201.25 0.49 198.33-3.1 195.42-6.69 195.42-13.31L195.42-13.31Q195.42-19.92 198.35-23.58 201.28-27.25 206.5-27.25L206.5-27.25Q211.95-27.25 214.85-23.29L214.85-23.29 215.17-23.29 215-25.22 214.9-27.1 214.9-37.99 218.95-37.99 218.95 0 215.66 0ZM207.01-2.91L207.01-2.91Q211.16-2.91 213.03-5.16 214.9-7.42 214.9-12.45L214.9-12.45 214.9-13.31Q214.9-18.99 213.01-21.42 211.12-23.85 206.96-23.85L206.96-23.85Q203.4-23.85 201.51-21.08 199.62-18.31 199.62-13.26L199.62-13.26Q199.62-8.13 201.5-5.52 203.38-2.91 207.01-2.91Z" opacity="1" transform="matrix(1,0,0,1,0,0)" fill="#4385b7" class="undefined-text-0" data-fill-palette-color="primary" id="text-0"></path></svg></g></svg></g><g transform="matrix(1,0,0,1,75.54432000000001,87.87580069839416)"><svg viewBox="0 0 244.43135999999996 19.101552162228998" height="19.101552162228998" width="244.43135999999996"><g transform="matrix(1,0,0,1,0,0)"><svg width="244.43135999999996" viewBox="0.6 -36.2 607.0799999999999 47.400000000000006" height="19.101552162228998" data-palette-color="#a0a0a0"><path d="M11.55 0.6L11.55 0.6Q8.15 0.6 5.38-0.83 2.6-2.25 0.6-5.2L0.6-5.2 3.45-7.35Q4.9-5.15 7.03-3.93 9.15-2.7 11.9-2.7L11.9-2.7Q13.4-2.7 14.7-3.15 16-3.6 16.93-4.4 17.85-5.2 18.4-6.35 18.95-7.5 18.95-8.9L18.95-8.9Q18.95-10.7 17.82-11.93 16.7-13.15 14.85-14.3L14.85-14.3 11.05-16.6Q8.95-17.9 7.48-19.7 6-21.5 6-24.3L6-24.3Q6-26.15 6.78-27.8 7.55-29.45 8.9-30.7 10.25-31.95 12.13-32.68 14-33.4 16.2-33.4L16.2-33.4Q19.15-33.4 21.55-32.1 23.95-30.8 25.5-28.8L25.5-28.8 22.95-26.5Q21.65-28 19.93-29.03 18.2-30.05 15.9-30.05L15.9-30.05Q14.5-30.05 13.4-29.6 12.3-29.15 11.53-28.4 10.75-27.65 10.35-26.7 9.95-25.75 9.95-24.75L9.95-24.75Q9.95-22.85 11.18-21.68 12.4-20.5 14.2-19.4L14.2-19.4 18-17.15Q20.4-15.75 21.68-13.98 22.95-12.2 22.95-9.45L22.95-9.45Q22.95-7.25 22.1-5.4 21.25-3.55 19.75-2.23 18.25-0.9 16.15-0.15 14.05 0.6 11.55 0.6ZM34.55 0.6L34.55 0.6Q32.95 0.6 31.85 0.18 30.75-0.25 30.05-0.98 29.35-1.7 29.05-2.68 28.75-3.65 28.75-4.8L28.75-4.8Q28.75-5.55 28.82-6.18 28.9-6.8 29-7.5L29-7.5 31.85-21.2 28.3-21.2 28.85-24.05 32.65-24.3 34.45-31 37.7-31 36.35-24.3 42.5-24.3 41.9-21.2 35.65-21.2 32.8-7.3Q32.65-6.4 32.65-5.5L32.65-5.5Q32.65-4 33.32-3.25 34-2.5 35.75-2.5L35.75-2.5Q36.45-2.5 37.1-2.75 37.75-3 38.3-3.25L38.3-3.25 39.15-0.5Q38.3-0.1 37.15 0.25 36 0.6 34.55 0.6ZM49.95 0.6L49.95 0.6Q46.75 0.6 44.85-1.65 42.95-3.9 42.95-8.2L42.95-8.2Q42.95-11.7 44.05-14.75 45.15-17.8 47-20.05 48.85-22.3 51.2-23.6 53.55-24.9 56.1-24.9L56.1-24.9Q58.05-24.9 59.57-23.9 61.1-22.9 61.95-21.25L61.95-21.25 62.15-21.25 63.1-24.3 66.2-24.3 61.35 0 58.2 0 58.6-3.6 58.4-3.6Q56.65-1.7 54.45-0.55 52.25 0.6 49.95 0.6ZM51.35-2.6L51.35-2.6Q53.25-2.6 55.22-3.73 57.2-4.85 59-7.25L59-7.25 61.2-18.1Q60.15-20 58.9-20.85 57.65-21.7 56.25-21.7L56.25-21.7Q54.45-21.7 52.75-20.63 51.05-19.55 49.75-17.75 48.45-15.95 47.67-13.63 46.9-11.3 46.9-8.8L46.9-8.8Q46.9-5.65 48.1-4.13 49.3-2.6 51.35-2.6ZM74.24-21.2L71.09-21.2 71.64-24.05 74.89-24.3 75.69-28.35Q76.44-32.05 78.37-34.13 80.29-36.2 83.39-36.2L83.39-36.2Q84.69-36.2 85.74-35.88 86.79-35.55 87.69-35L87.69-35 86.34-32.25Q85.79-32.6 85.14-32.85 84.49-33.1 83.64-33.1L83.64-33.1Q81.99-33.1 80.97-31.85 79.94-30.6 79.54-28.45L79.54-28.45 78.69-24.3 83.59-24.3 82.99-21.2 78.04-21.2 73.79 0 69.99 0 74.24-21.2ZM88.34-21.2L85.19-21.2 85.74-24.05 88.99-24.3 89.79-28.35Q90.54-32.05 92.47-34.13 94.39-36.2 97.49-36.2L97.49-36.2Q98.79-36.2 99.84-35.88 100.89-35.55 101.79-35L101.79-35 100.44-32.25Q99.89-32.6 99.24-32.85 98.59-33.1 97.74-33.1L97.74-33.1Q96.09-33.1 95.06-31.85 94.04-30.6 93.64-28.45L93.64-28.45 92.79-24.3 97.69-24.3 97.09-21.2 92.14-21.2 87.89 0 84.09 0 88.34-21.2ZM116.23 0.6L116.23 0.6Q112.28 0.6 109.93-2 107.58-4.6 107.58-9.15L107.58-9.15Q107.58-12.6 108.68-15.5 109.78-18.4 111.63-20.48 113.48-22.55 115.83-23.73 118.18-24.9 120.68-24.9L120.68-24.9Q124.63-24.9 127.01-22.3 129.38-19.7 129.38-15.15L129.38-15.15Q129.38-11.7 128.26-8.8 127.13-5.9 125.31-3.83 123.48-1.75 121.11-0.58 118.73 0.6 116.23 0.6ZM116.63-2.6L116.63-2.6Q118.33-2.6 119.91-3.58 121.48-4.55 122.73-6.2 123.98-7.85 124.73-10.1 125.48-12.35 125.48-14.9L125.48-14.9Q125.48-18.2 124.16-19.98 122.83-21.75 120.28-21.75L120.28-21.75Q118.63-21.75 117.03-20.78 115.43-19.8 114.18-18.13 112.93-16.45 112.18-14.2 111.43-11.95 111.43-9.4L111.43-9.4Q111.43-6.1 112.76-4.35 114.08-2.6 116.63-2.6ZM136.73 0L132.93 0 137.73-24.3 140.88-24.3 140.53-20.65 140.73-20.65Q142.83-22.45 144.88-23.68 146.93-24.9 149.23-24.9L149.23-24.9Q152.33-24.9 153.66-23.3 154.98-21.7 154.98-18.85L154.98-18.85Q154.98-18 154.91-17.25 154.83-16.5 154.58-15.5L154.58-15.5 151.48 0 147.68 0 150.68-15Q150.88-16 150.98-16.6 151.08-17.2 151.08-17.85L151.08-17.85Q151.08-19.7 150.23-20.65 149.38-21.6 147.48-21.6L147.48-21.6Q146.03-21.6 144.26-20.55 142.48-19.5 140.18-17.2L140.18-17.2 136.73 0ZM163.33-3.05L162.33 0 159.18 0 166.28-35.6 170.13-35.6 168.18-26.1 167.08-21.3 167.18-21.3Q168.98-22.75 171.08-23.83 173.18-24.9 175.43-24.9L175.43-24.9Q178.63-24.9 180.53-22.65 182.43-20.4 182.43-16.1L182.43-16.1Q182.43-12.6 181.33-9.55 180.23-6.5 178.41-4.25 176.58-2 174.2-0.7 171.83 0.6 169.33 0.6L169.33 0.6Q167.38 0.6 165.85-0.4 164.33-1.4 163.48-3.05L163.48-3.05 163.33-3.05ZM174.03-21.7L174.03-21.7Q172.33-21.7 170.31-20.65 168.28-19.6 166.53-17.75L166.53-17.75 164.23-6.2Q165.23-4.3 166.48-3.45 167.73-2.6 169.18-2.6L169.18-2.6Q170.98-2.6 172.68-3.68 174.38-4.75 175.66-6.55 176.93-8.35 177.7-10.68 178.48-13 178.48-15.55L178.48-15.55Q178.48-18.65 177.31-20.18 176.13-21.7 174.03-21.7ZM195.03 0.6L195.03 0.6Q191.08 0.6 188.73-2 186.38-4.6 186.38-9.15L186.38-9.15Q186.38-12.6 187.48-15.5 188.58-18.4 190.43-20.48 192.28-22.55 194.63-23.73 196.98-24.9 199.48-24.9L199.48-24.9Q203.43-24.9 205.8-22.3 208.18-19.7 208.18-15.15L208.18-15.15Q208.18-11.7 207.05-8.8 205.93-5.9 204.1-3.83 202.28-1.75 199.9-0.58 197.53 0.6 195.03 0.6ZM195.43-2.6L195.43-2.6Q197.13-2.6 198.7-3.58 200.28-4.55 201.53-6.2 202.78-7.85 203.53-10.1 204.28-12.35 204.28-14.9L204.28-14.9Q204.28-18.2 202.95-19.98 201.63-21.75 199.08-21.75L199.08-21.75Q197.43-21.75 195.83-20.78 194.23-19.8 192.98-18.13 191.73-16.45 190.98-14.2 190.23-11.95 190.23-9.4L190.23-9.4Q190.23-6.1 191.55-4.35 192.88-2.6 195.43-2.6ZM219.13 0.6L219.13 0.6Q215.93 0.6 214.03-1.65 212.13-3.9 212.13-8.2L212.13-8.2Q212.13-11.7 213.23-14.75 214.33-17.8 216.18-20.05 218.03-22.3 220.38-23.6 222.73-24.9 225.28-24.9L225.28-24.9Q227.23-24.9 228.75-23.9 230.28-22.9 231.13-21.25L231.13-21.25 231.33-21.25 232.28-24.3 235.38-24.3 230.53 0 227.38 0 227.78-3.6 227.58-3.6Q225.83-1.7 223.63-0.55 221.43 0.6 219.13 0.6ZM220.53-2.6L220.53-2.6Q222.43-2.6 224.4-3.73 226.38-4.85 228.18-7.25L228.18-7.25 230.38-18.1Q229.33-20 228.08-20.85 226.83-21.7 225.43-21.7L225.43-21.7Q223.63-21.7 221.93-20.63 220.23-19.55 218.93-17.75 217.63-15.95 216.85-13.63 216.08-11.3 216.08-8.8L216.08-8.8Q216.08-5.65 217.28-4.13 218.48-2.6 220.53-2.6ZM242.37 0L238.57 0 243.37-24.3 246.52-24.3 245.97-19.65 246.17-19.65Q247.62-21.9 249.55-23.4 251.47-24.9 253.72-24.9L253.72-24.9Q254.97-24.9 256.02-24.45L256.02-24.45 254.67-21.05Q253.87-21.45 252.57-21.45L252.57-21.45Q250.77-21.45 248.87-19.9 246.97-18.35 245.42-15.35L245.42-15.35 242.37 0ZM274.47-21.35L274.62-21.35 275.42-26.1 277.32-35.6 281.17-35.6 273.97 0 270.82 0 271.22-3.6 271.02-3.6Q269.27-1.7 267.07-0.55 264.87 0.6 262.57 0.6L262.57 0.6Q259.37 0.6 257.47-1.65 255.57-3.9 255.57-8.2L255.57-8.2Q255.57-11.7 256.67-14.75 257.77-17.8 259.62-20.05 261.47-22.3 263.82-23.6 266.17-24.9 268.72-24.9L268.72-24.9Q270.67-24.9 272.12-23.93 273.57-22.95 274.47-21.35L274.47-21.35ZM263.97-2.6L263.97-2.6Q265.87-2.6 267.82-3.73 269.77-4.85 271.62-7.25L271.62-7.25 273.82-18.1Q272.77-20 271.52-20.85 270.27-21.7 268.87-21.7L268.87-21.7Q267.07-21.7 265.37-20.63 263.67-19.55 262.37-17.75 261.07-15.95 260.3-13.63 259.52-11.3 259.52-8.8L259.52-8.8Q259.52-5.65 260.72-4.13 261.92-2.6 263.97-2.6ZM285.72 0L281.92 0 286.77-24.3 290.62-24.3 285.72 0ZM290.02-29.35L290.02-29.35Q289.02-29.35 288.29-29.93 287.57-30.5 287.57-31.6L287.57-31.6Q287.57-32.85 288.44-33.68 289.32-34.5 290.47-34.5L290.47-34.5Q291.47-34.5 292.19-33.9 292.92-33.3 292.92-32.2L292.92-32.2Q292.92-30.95 292.04-30.15 291.17-29.35 290.02-29.35ZM297.57 0L293.77 0 298.57-24.3 301.72-24.3 301.37-20.65 301.57-20.65Q303.67-22.45 305.72-23.68 307.77-24.9 310.07-24.9L310.07-24.9Q313.17-24.9 314.49-23.3 315.82-21.7 315.82-18.85L315.82-18.85Q315.82-18 315.74-17.25 315.67-16.5 315.42-15.5L315.42-15.5 312.32 0 308.52 0 311.52-15Q311.72-16 311.82-16.6 311.92-17.2 311.92-17.85L311.92-17.85Q311.92-19.7 311.07-20.65 310.22-21.6 308.32-21.6L308.32-21.6Q306.87-21.6 305.09-20.55 303.32-19.5 301.02-17.2L301.02-17.2 297.57 0ZM326.86 11.2L326.86 11.2Q324.41 11.2 322.26 10.25 320.11 9.3 318.36 7.85L318.36 7.85 320.16 5.2Q321.56 6.4 323.26 7.25 324.96 8.1 327.01 8.1L327.01 8.1Q330.16 8.1 332.01 6.13 333.86 4.15 334.66 0.85L334.66 0.85 335.91-4.35Q334.01-2.45 331.91-1.35 329.81-0.25 327.46-0.25L327.46-0.25Q324.36-0.25 322.39-2.4 320.41-4.55 320.41-8.8L320.41-8.8Q320.41-12.15 321.49-15.08 322.56-18 324.36-20.18 326.16-22.35 328.49-23.63 330.81-24.9 333.26-24.9L333.26-24.9Q335.16-24.9 336.71-23.9 338.26-22.9 339.11-21.25L339.11-21.25 339.26-21.25 340.21-24.3 343.36-24.3 338.26 1.15Q337.26 6 334.36 8.6 331.46 11.2 326.86 11.2ZM328.71-3.45L328.71-3.45Q330.46-3.45 332.46-4.53 334.46-5.6 336.21-7.7L336.21-7.7 338.36-18.1Q337.21-20 336.01-20.85 334.81-21.7 333.41-21.7L333.41-21.7Q331.66-21.7 330.01-20.68 328.36-19.65 327.11-17.93 325.86-16.2 325.11-13.98 324.36-11.75 324.36-9.35L324.36-9.35Q324.36-6.35 325.51-4.9 326.66-3.45 328.71-3.45ZM359.96 0L356.16 0 360.96-24.3 364.11-24.3 363.76-20.65 363.96-20.65Q365.86-22.45 367.96-23.68 370.06-24.9 371.96-24.9L371.96-24.9Q373.41-24.9 374.41-24.53 375.41-24.15 376.06-23.53 376.71-22.9 377.06-22.03 377.41-21.15 377.56-20.15L377.56-20.15Q379.91-22.4 382.08-23.65 384.26-24.9 386.16-24.9L386.16-24.9Q389.21-24.9 390.56-23.3 391.91-21.7 391.91-18.85L391.91-18.85Q391.91-18 391.81-17.25 391.71-16.5 391.51-15.5L391.51-15.5 388.41 0 384.56 0 387.61-15Q387.81-16 387.91-16.6 388.01-17.2 388.01-17.85L388.01-17.85Q388.01-21.6 384.46-21.6L384.46-21.6Q383.41-21.6 381.61-20.55 379.81-19.5 377.61-17.2L377.61-17.2 374.16 0 370.36 0 373.36-15Q373.56-16 373.66-16.6 373.76-17.2 373.76-17.85L373.76-17.85Q373.76-21.6 370.26-21.6L370.26-21.6Q369.16-21.6 367.36-20.55 365.56-19.5 363.41-17.2L363.41-17.2 359.96 0ZM403.51 0.6L403.51 0.6Q400.31 0.6 398.41-1.65 396.51-3.9 396.51-8.2L396.51-8.2Q396.51-11.7 397.61-14.75 398.71-17.8 400.56-20.05 402.41-22.3 404.76-23.6 407.11-24.9 409.66-24.9L409.66-24.9Q411.61-24.9 413.13-23.9 414.66-22.9 415.51-21.25L415.51-21.25 415.71-21.25 416.66-24.3 419.76-24.3 414.91 0 411.76 0 412.16-3.6 411.96-3.6Q410.21-1.7 408.01-0.55 405.81 0.6 403.51 0.6ZM404.91-2.6L404.91-2.6Q406.81-2.6 408.78-3.73 410.76-4.85 412.56-7.25L412.56-7.25 414.76-18.1Q413.71-20 412.46-20.85 411.21-21.7 409.81-21.7L409.81-21.7Q408.01-21.7 406.31-20.63 404.61-19.55 403.31-17.75 402.01-15.95 401.23-13.63 400.46-11.3 400.46-8.8L400.46-8.8Q400.46-5.65 401.66-4.13 402.86-2.6 404.91-2.6ZM442.25-21.35L442.4-21.35 443.2-26.1 445.1-35.6 448.95-35.6 441.75 0 438.6 0 439-3.6 438.8-3.6Q437.05-1.7 434.85-0.55 432.65 0.6 430.35 0.6L430.35 0.6Q427.15 0.6 425.25-1.65 423.35-3.9 423.35-8.2L423.35-8.2Q423.35-11.7 424.45-14.75 425.55-17.8 427.4-20.05 429.25-22.3 431.6-23.6 433.95-24.9 436.5-24.9L436.5-24.9Q438.45-24.9 439.9-23.93 441.35-22.95 442.25-21.35L442.25-21.35ZM431.75-2.6L431.75-2.6Q433.65-2.6 435.6-3.73 437.55-4.85 439.4-7.25L439.4-7.25 441.6-18.1Q440.55-20 439.3-20.85 438.05-21.7 436.65-21.7L436.65-21.7Q434.85-21.7 433.15-20.63 431.45-19.55 430.15-17.75 428.85-15.95 428.08-13.63 427.3-11.3 427.3-8.8L427.3-8.8Q427.3-5.65 428.5-4.13 429.7-2.6 431.75-2.6ZM450-9.55L450-9.55Q450-13 451.15-15.83 452.3-18.65 454.13-20.68 455.95-22.7 458.28-23.8 460.6-24.9 463-24.9L463-24.9Q465.05-24.9 466.48-24.23 467.9-23.55 468.8-22.38 469.7-21.2 470.1-19.58 470.5-17.95 470.5-16.1L470.5-16.1Q470.5-14.65 470.2-13.35 469.9-12.05 469.65-11.35L469.65-11.35 453.85-11.35Q453.5-9 453.9-7.33 454.3-5.65 455.23-4.55 456.15-3.45 457.5-2.95 458.85-2.45 460.45-2.45L460.45-2.45Q461.9-2.45 463.33-3.08 464.75-3.7 465.9-4.55L465.9-4.55 467.4-2Q465.95-0.95 463.95-0.18 461.95 0.6 459.55 0.6L459.55 0.6Q455.2 0.6 452.6-2.02 450-4.65 450-9.55ZM454.25-13.95L454.25-13.95 467-13.95Q467.1-14.55 467.18-15.15 467.25-15.75 467.25-16.45L467.25-16.45Q467.25-17.5 467-18.48 466.75-19.45 466.2-20.2 465.65-20.95 464.75-21.4 463.85-21.85 462.55-21.85L462.55-21.85Q461.2-21.85 459.93-21.3 458.65-20.75 457.55-19.7 456.45-18.65 455.58-17.2 454.7-15.75 454.25-13.95ZM483.65-9.55L483.65-9.55Q483.65-13 484.8-15.83 485.95-18.65 487.77-20.68 489.6-22.7 491.92-23.8 494.25-24.9 496.65-24.9L496.65-24.9Q498.7-24.9 500.12-24.23 501.55-23.55 502.45-22.38 503.35-21.2 503.75-19.58 504.15-17.95 504.15-16.1L504.15-16.1Q504.15-14.65 503.85-13.35 503.55-12.05 503.3-11.35L503.3-11.35 487.5-11.35Q487.15-9 487.55-7.33 487.95-5.65 488.87-4.55 489.8-3.45 491.15-2.95 492.5-2.45 494.1-2.45L494.1-2.45Q495.55-2.45 496.97-3.08 498.4-3.7 499.55-4.55L499.55-4.55 501.05-2Q499.6-0.95 497.6-0.18 495.6 0.6 493.2 0.6L493.2 0.6Q488.85 0.6 486.25-2.02 483.65-4.65 483.65-9.55ZM487.9-13.95L487.9-13.95 500.65-13.95Q500.75-14.55 500.82-15.15 500.9-15.75 500.9-16.45L500.9-16.45Q500.9-17.5 500.65-18.48 500.4-19.45 499.85-20.2 499.3-20.95 498.4-21.4 497.5-21.85 496.2-21.85L496.2-21.85Q494.85-21.85 493.57-21.3 492.3-20.75 491.2-19.7 490.1-18.65 489.22-17.2 488.35-15.75 487.9-13.95ZM514.79 0.6L514.79 0.6Q511.59 0.6 509.69-1.65 507.79-3.9 507.79-8.2L507.79-8.2Q507.79-11.7 508.89-14.75 509.99-17.8 511.84-20.05 513.69-22.3 516.04-23.6 518.39-24.9 520.94-24.9L520.94-24.9Q522.89-24.9 524.42-23.9 525.94-22.9 526.79-21.25L526.79-21.25 526.99-21.25 527.94-24.3 531.04-24.3 526.19 0 523.04 0 523.44-3.6 523.24-3.6Q521.49-1.7 519.29-0.55 517.09 0.6 514.79 0.6ZM516.19-2.6L516.19-2.6Q518.09-2.6 520.07-3.73 522.04-4.85 523.84-7.25L523.84-7.25 526.04-18.1Q524.99-20 523.74-20.85 522.49-21.7 521.09-21.7L521.09-21.7Q519.29-21.7 517.59-20.63 515.89-19.55 514.59-17.75 513.29-15.95 512.52-13.63 511.74-11.3 511.74-8.8L511.74-8.8Q511.74-5.65 512.94-4.13 514.14-2.6 516.19-2.6ZM540.84 0.6L540.84 0.6Q539.64 0.6 538.42 0.25 537.19-0.1 536.07-0.73 534.94-1.35 534.02-2.2 533.09-3.05 532.49-4L532.49-4 534.89-5.9Q536.04-4.3 537.64-3.33 539.24-2.35 541.14-2.35L541.14-2.35Q542.19-2.35 543.12-2.68 544.04-3 544.77-3.55 545.49-4.1 545.89-4.83 546.29-5.55 546.29-6.4L546.29-6.4Q546.29-7.05 546.07-7.6 545.84-8.15 545.34-8.68 544.84-9.2 543.97-9.75 543.09-10.3 541.84-11L541.84-11Q538.99-12.55 537.64-14.05 536.29-15.55 536.29-17.65L536.29-17.65Q536.29-19.25 536.97-20.6 537.64-21.95 538.77-22.9 539.89-23.85 541.42-24.38 542.94-24.9 544.64-24.9L544.64-24.9Q546.89-24.9 548.67-24 550.44-23.1 551.79-21.65L551.79-21.65 549.59-19.5Q548.59-20.5 547.39-21.2 546.19-21.9 544.54-21.9L544.54-21.9Q542.59-21.9 541.27-20.78 539.94-19.65 539.94-18.1L539.94-18.1Q539.94-17.35 540.29-16.75 540.64-16.15 541.24-15.65 541.84-15.15 542.62-14.7 543.39-14.25 544.24-13.8L544.24-13.8Q545.89-12.9 546.97-12.08 548.04-11.25 548.72-10.43 549.39-9.6 549.67-8.75 549.94-7.9 549.94-6.9L549.94-6.9Q549.94-5.2 549.27-3.8 548.59-2.4 547.37-1.43 546.14-0.45 544.47 0.08 542.79 0.6 540.84 0.6ZM558.14 0L554.34 0 559.19-24.3 563.04-24.3 558.14 0ZM562.44-29.35L562.44-29.35Q561.44-29.35 560.71-29.93 559.99-30.5 559.99-31.6L559.99-31.6Q559.99-32.85 560.86-33.68 561.74-34.5 562.89-34.5L562.89-34.5Q563.89-34.5 564.61-33.9 565.34-33.3 565.34-32.2L565.34-32.2Q565.34-30.95 564.46-30.15 563.59-29.35 562.44-29.35ZM566.49-9.55L566.49-9.55Q566.49-13 567.63-15.83 568.78-18.65 570.61-20.68 572.43-22.7 574.76-23.8 577.09-24.9 579.49-24.9L579.49-24.9Q581.53-24.9 582.96-24.23 584.38-23.55 585.28-22.38 586.18-21.2 586.59-19.58 586.99-17.95 586.99-16.1L586.99-16.1Q586.99-14.65 586.68-13.35 586.38-12.05 586.13-11.35L586.13-11.35 570.34-11.35Q569.99-9 570.38-7.33 570.78-5.65 571.71-4.55 572.63-3.45 573.99-2.95 575.34-2.45 576.93-2.45L576.93-2.45Q578.38-2.45 579.81-3.08 581.24-3.7 582.38-4.55L582.38-4.55 583.88-2Q582.43-0.95 580.43-0.18 578.43 0.6 576.03 0.6L576.03 0.6Q571.68 0.6 569.09-2.02 566.49-4.65 566.49-9.55ZM570.74-13.95L570.74-13.95 583.49-13.95Q583.59-14.55 583.66-15.15 583.74-15.75 583.74-16.45L583.74-16.45Q583.74-17.5 583.49-18.48 583.24-19.45 582.68-20.2 582.13-20.95 581.24-21.4 580.34-21.85 579.03-21.85L579.03-21.85Q577.68-21.85 576.41-21.3 575.13-20.75 574.03-19.7 572.93-18.65 572.06-17.2 571.18-15.75 570.74-13.95ZM594.03 0L590.23 0 595.03-24.3 598.18-24.3 597.63-19.65 597.83-19.65Q599.28-21.9 601.21-23.4 603.13-24.9 605.38-24.9L605.38-24.9Q606.63-24.9 607.68-24.45L607.68-24.45 606.33-21.05Q605.53-21.45 604.23-21.45L604.23-21.45Q602.43-21.45 600.53-19.9 598.63-18.35 597.08-15.35L597.08-15.35 594.03 0Z" opacity="1" transform="matrix(1,0,0,1,0,0)" fill="#a0a0a0" class="undefined-text-1" data-fill-palette-color="secondary" id="text-1"></path></svg></g></svg></g></svg></g></svg></g><g transform="matrix(1,0,0,1,99.19819889774584,0)"><svg viewBox="0 0 197.1236022045083 147.84270165338123" height="147.84270165338123" width="197.1236022045083"><g><svg xmlns="http://www.w3.org/2000/svg" xmlns:xlink="http://www.w3.org/1999/xlink" version="1.1" x="0" y="0" viewBox="0 0 200 150" enable-background="new 0 0 200 150" xml:space="preserve" height="147.84270165338123" width="197.1236022045083" class="icon-icon-0" fill="#bed600" data-fill-palette-color="accent" id="icon-0"><path d="M0 0v60 90h200V60 0H0zM196 146H4V64h192V146zM196 60H4V4h192V60z" fill="#bed600" data-fill-palette-color="accent"></path><path d="M82.623 29.035c-0.075-0.657-0.123-1.323-0.123-2 0-0.677 0.048-1.343 0.123-2H65.967c0.075 0.657 0.123 1.323 0.123 2 0 0.677-0.048 1.343-0.123 2H82.623z" fill="#bed600" data-fill-palette-color="accent"></path><path d="M133.713 29.035c-0.075-0.657-0.123-1.323-0.123-2 0-0.677 0.048-1.343 0.123-2h-16.336c0.075 0.657 0.123 1.323 0.123 2 0 0.677-0.048 1.343-0.123 2H133.713z" fill="#bed600" data-fill-palette-color="accent"></path><path d="M48.91 40.945c7.682 0 13.91-6.228 13.91-13.91 0-7.682-6.228-13.91-13.91-13.91S35 19.353 35 27.035C35 34.718 41.228 40.945 48.91 40.945zM48.91 16.125c6.016 0 10.91 4.894 10.91 10.91s-4.894 10.91-10.91 10.91S38 33.051 38 27.035 42.894 16.125 48.91 16.125z" fill="#bed600" data-fill-palette-color="accent"></path><path d="M100 40.945c7.682 0 13.91-6.228 13.91-13.91 0-7.682-6.228-13.91-13.91-13.91s-13.91 6.228-13.91 13.91C86.09 34.718 92.318 40.945 100 40.945zM100 16.125c6.016 0 10.91 4.894 10.91 10.91s-4.894 10.91-10.91 10.91-10.91-4.894-10.91-10.91S93.984 16.125 100 16.125z" fill="#bed600" data-fill-palette-color="accent"></path><path d="M151.09 40.945c7.682 0 13.91-6.228 13.91-13.91 0-7.682-6.228-13.91-13.91-13.91-7.682 0-13.91 6.228-13.91 13.91C137.18 34.718 143.407 40.945 151.09 40.945zM151.09 16.125c6.016 0 10.91 4.894 10.91 10.91s-4.894 10.91-10.91 10.91-10.91-4.894-10.91-10.91S145.074 16.125 151.09 16.125z" fill="#bed600" data-fill-palette-color="accent"></path><path d="M153.556 31.464c0.713-0.547 1.069-1.312 1.069-2.295 0-0.675-0.212-1.212-0.636-1.61s-1.048-0.649-1.872-0.751v-0.042c0.699-0.168 1.241-0.475 1.628-0.922 0.387-0.447 0.58-0.99 0.58-1.628 0-0.764-0.307-1.36-0.918-1.788-0.613-0.428-1.448-0.643-2.505-0.643-1.29 0-2.401 0.335-3.332 1.006l0.999 1.488c0.424-0.275 0.809-0.468 1.156-0.58s0.689-0.168 1.024-0.168c0.969 0 1.453 0.387 1.453 1.16 0 0.503-0.183 0.858-0.549 1.065s-0.944 0.311-1.736 0.311h-0.789v1.656h0.775c0.857 0 1.481 0.1 1.872 0.3 0.391 0.2 0.587 0.54 0.587 1.02 0 0.536-0.17 0.924-0.51 1.167-0.34 0.242-0.866 0.363-1.579 0.363-0.466 0-0.936-0.063-1.411-0.189-0.475-0.126-0.911-0.289-1.306-0.489v1.837c0.857 0.368 1.84 0.552 2.948 0.552C151.826 32.285 152.843 32.012 153.556 31.464z" fill="#bed600" data-fill-palette-color="accent"></path><rect x="36.987" y="46.875" width="23.846" height="4" fill="#bed600" data-fill-palette-color="accent"></rect><rect x="88.077" y="46.875" width="23.846" height="4" fill="#bed600" data-fill-palette-color="accent"></rect><rect x="139.167" y="46.875" width="23.846" height="4" fill="#bed600" data-fill-palette-color="accent"></rect><rect x="35" y="115" width="130" height="4" fill="#bed600" data-fill-palette-color="accent"></rect><rect x="35" y="105" width="130" height="4" fill="#bed600" data-fill-palette-color="accent"></rect><rect x="35" y="95" width="130" height="4" fill="#bed600" data-fill-palette-color="accent"></rect><rect x="35" y="85" width="70" height="4" fill="#bed600" data-fill-palette-color="accent"></rect><path d="M98.74 23.888c0.378-0.184 0.767-0.276 1.168-0.276 0.382 0 0.688 0.102 0.917 0.304 0.229 0.203 0.343 0.512 0.343 0.928 0 0.278-0.052 0.547-0.156 0.807-0.104 0.26-0.274 0.542-0.51 0.846s-0.739 0.851-1.508 1.639l-2.598 2.627v1.522h7.236v-1.841h-4.51v-0.099l1.331-1.253c0.887-0.812 1.507-1.437 1.859-1.876 0.352-0.439 0.611-0.867 0.779-1.285 0.168-0.418 0.251-0.865 0.251-1.342 0-0.547-0.137-1.034-0.411-1.458-0.274-0.425-0.658-0.755-1.154-0.991-0.496-0.236-1.067-0.354-1.713-0.354-0.491 0-0.935 0.048-1.331 0.145-0.397 0.097-0.762 0.235-1.097 0.414-0.335 0.179-0.758 0.486-1.267 0.92l1.189 1.409C97.968 24.334 98.362 24.072 98.74 23.888z" fill="#bed600" data-fill-palette-color="accent"></path><path d="M47.277 24.845c0.144-0.115 0.4-0.357 0.768-0.725l-0.036 1.092-0.022 0.998v6.076h2.219v-10.5h-1.824L45 24.478l1.07 1.336L47.277 24.845z" fill="#bed600" data-fill-palette-color="accent"></path></svg><g></g></g></svg></g><g></g></svg></g></svg></g></svg><rect width="359.9829009131101" height="247.2" fill="transparent" stroke="transparent"></rect></g></svg></g></svg>